<svg id="cover" xmlns="http://www.w3.org/2000/svg" width="284" height="257" viewBox="0 0 284 257">
  <rect id="Rectangle_57" data-name="Rectangle 57" width="284" height="257" fill="#2456ff"/>
  <path id="Path_305" data-name="Path 305" d="M73,14.949,0,40H73Z" transform="translate(28.598 164.173) rotate(20)" fill="#fff" opacity="0.6"/>
  <path id="Path_306" data-name="Path 306" d="M0,14.949,73,40H0Z" transform="translate(13 204)" fill="#11111b" opacity="0.6"/>
  <path id="Path_307" data-name="Path 307" d="M0,25.051,64.428,0H0Z" transform="translate(16.999 118.949)" fill="#11111b" opacity="0.6"/>
  <path id="Path_308" data-name="Path 308" d="M73,0,0,25.051H73Z" transform="translate(78.598 79.729) rotate(-160)" fill="#fff" opacity="0.6"/>
  <path id="Path_309" data-name="Path 309" d="M73,40,0,14.949H73Z" transform="translate(16.082 -1)" fill="#11111b" opacity="0.6"/>
  <path id="Path_310" data-name="Path 310" d="M73,0,0,25.051H73Z" transform="matrix(0.946, 0.326, -0.326, 0.946, 27.149, 127.748)" fill="#fff" opacity="0.6"/>
  <path id="Path_311" data-name="Path 311" d="M73,25.051,0,0H73Z" transform="translate(12.083 69.949)" fill="#11111b" opacity="0.6"/>
  <path id="Path_312" data-name="Path 312" d="M73,25.051,0,0H73Z" transform="matrix(-1, 0.017, -0.017, -1, 87.296, 112.361)" fill="#fff" opacity="0.6"/>
  <path id="Path_313" data-name="Path 313" d="M73,25.051,0,0H73Z" transform="translate(89.999 188) rotate(180)" fill="#11111b" opacity="0.6"/>
  <path id="Path_314" data-name="Path 314" d="M73,0,0,25.051H73Z" transform="translate(106.127 175.964) rotate(24)" fill="#fff" opacity="0.6"/>
  <path id="Path_315" data-name="Path 315" d="M0,14.949,73,40H0Z" transform="matrix(0.998, 0.07, -0.07, 0.998, 93.869, 200.95)" fill="#11111b" opacity="0.6"/>
  <path id="Path_316" data-name="Path 316" d="M0,25.051,64.428,0H0Z" transform="matrix(0.998, 0.07, -0.07, 0.998, 103.792, 116.385)" fill="#11111b" opacity="0.6"/>
  <path id="Path_317" data-name="Path 317" d="M73,0,0,25.051H73Z" transform="translate(167.977 81.558) rotate(-156)" fill="#fff" opacity="0.6"/>
  <path id="Path_318" data-name="Path 318" d="M73,40,0,14.949H73Z" transform="matrix(0.998, 0.07, -0.07, 0.998, 111.243, -3.336)" fill="#11111b" opacity="0.6"/>
  <path id="Path_319" data-name="Path 319" d="M73,0,0,25.051H73Z" transform="matrix(0.921, 0.391, -0.391, 0.921, 113.304, 125.87)" fill="#fff" opacity="0.6"/>
  <path id="Path_320" data-name="Path 320" d="M73,25.051,0,0H73Z" transform="matrix(0.998, 0.07, -0.07, 0.998, 102.305, 67.161)" fill="#11111b" opacity="0.6"/>
  <path id="Path_321" data-name="Path 321" d="M73,25.051,0,0H73Z" transform="translate(174.377 114.717) rotate(-177)" fill="#fff" opacity="0.6"/>
  <path id="Path_322" data-name="Path 322" d="M0,0,73,25.051H0Z" transform="matrix(0.998, 0.07, -0.07, 0.998, 100.723, 160.278)" fill="#11111b" opacity="0.6"/>
  <path id="Path_323" data-name="Path 323" d="M73,25.051,0,0H73Z" transform="translate(184.917 58.188) rotate(-20)" fill="#fff" opacity="0.6"/>
  <path id="Path_324" data-name="Path 324" d="M0,40,31.259,26.725l42-17.837L0,14.949Z" transform="translate(189 6)" fill="#11111b" opacity="0.6"/>
  <path id="Path_325" data-name="Path 325" d="M0,0,64.428,25.051H0Z" transform="translate(181.999 115.949)" fill="#11111b" opacity="0.6"/>
  <path id="Path_326" data-name="Path 326" d="M64.886,23.617,0,0,82.453-.92Z" transform="translate(260.166 205.761) rotate(160)" fill="#fff" opacity="0.6"/>
  <path id="Path_327" data-name="Path 327" d="M73,14.949,0,40H73Z" transform="translate(183.082 206)" fill="#11111b" opacity="0.6"/>
  <path id="Path_328" data-name="Path 328" d="M73,25.051,0,0H73Z" transform="translate(192.994 111.515) rotate(-19)" fill="#fff" opacity="0.6"/>
  <path id="Path_329" data-name="Path 329" d="M73,0,0,25.051H73Z" transform="translate(178.083 169.949)" fill="#11111b" opacity="0.6"/>
  <path id="Path_330" data-name="Path 330" d="M73,0,0,25.051l63.622,3.3Z" transform="matrix(-1, -0.017, 0.017, -1, 259.859, 183.635)" fill="#fff" opacity="0.6"/>
  <path id="Path_331" data-name="Path 331" d="M0,25.051,73,0H0Z" transform="translate(188.999 71.949)" fill="#11111b" opacity="0.6"/>
</svg>
