<svg id="conduit-logo-dark" xmlns="http://www.w3.org/2000/svg" width="156" height="48" viewBox="0 0 156 48">
  <text id="c_nduit" data-name="c   nduit" transform="translate(0 38)" fill="#b3b9cf" font-size="40" font-family="ProductSans-Bold, Product Sans" font-weight="700" letter-spacing="0.036em"><tspan x="0" y="0" xml:space="preserve">c   nduit</tspan></text>
  <path id="Path_304" data-name="Path 304" d="M17.168-7.227a6.427,6.427,0,0,1-5.233,3.2A6.319,6.319,0,0,1,5.8-10.54a6.338,6.338,0,0,1,6.138-6.51,6.309,6.309,0,0,1,5.309,2.763l3.6-1.894a10.268,10.268,0,0,0-8.9-5.208A10.862,10.862,0,0,0,1.085-10.54,10.862,10.862,0,0,0,11.935.31c4.8,0,7.207-3.319,8.731-5.618Z" transform="matrix(-0.017, 1, -1, -0.017, 26.702, 16.311)" fill="#2456ff" stroke="#2456ff" stroke-width="2"/>
</svg>
